HIERARCHY
ROOT root
{
  OFFSET 0 95.9893 0
  CHANNELS 6 Xposition Yposition Zposition Zrotation Xrotation Yrotation
  JOINT torso_1
  {
    OFFSET 0 5.22546 -1.18466
    CHANNELS 6 Xposition Yposition Zposition Zrotation Xrotation Yrotation
    JOINT torso_2
    {
      OFFSET 0 5.77894 1.10239
      CHANNELS 6 Xposition Yposition Zposition Zrotation Xrotation Yrotation
      JOINT torso_3
      {
        OFFSET -1.0557e-17 6.16289 0.118334
        CHANNELS 6 Xposition Yposition Zposition Zrotation Xrotation Yrotation
        JOINT torso_4
        {
          OFFSET -1.13649e-17 6.69386 -0.456341
          CHANNELS 6 Xposition Yposition Zposition Zrotation Xrotation Yrotation
          JOINT torso_5
          {
            OFFSET -2.02997e-17 7.82529 -1.54945
            CHANNELS 6 Xposition Yposition Zposition Zrotation Xrotation Yrotation
            JOINT torso_6
            {
              OFFSET -2.60628e-17 9.77186 -0.940923
              CHANNELS 6 Xposition Yposition Zposition Zrotation Xrotation Yrotation
              JOINT torso_7
              {
                OFFSET -2.98794e-17 10.8563 1.62248
                CHANNELS 6 Xposition Yposition Zposition Zrotation Xrotation Yrotation
                JOINT neck_1
                {
                  OFFSET -1.32927e-17 4.92478 0.736013
                  CHANNELS 6 Xposition Yposition Zposition Zrotation Xrotation Yrotation
                  JOINT neck_2
                  {
                    OFFSET -1.86396e-17 4.96043 0.433981
                    CHANNELS 6 Xposition Yposition Zposition Zrotation Xrotation Yrotation
                    JOINT head
                    {
                      OFFSET -2.06766e-17 4.97002 0.787173
                      CHANNELS 6 Xposition Yposition Zposition Zrotation Xrotation Yrotation
                      End Site
                      {
                        OFFSET 0 0.1 0
                      }
                    }
                  }
                }
                JOINT l_shoulder
                {
                  OFFSET 1.26863 -7.82717 7.75148
                  CHANNELS 6 Xposition Yposition Zposition Zrotation Xrotation Yrotation
                  JOINT l_up_arm
                  {
                    OFFSET 13.3291 3.34342 -3.36319
                    CHANNELS 6 Xposition Yposition Zposition Zrotation Xrotation Yrotation
                    JOINT l_low_arm
                    {
                      OFFSET 30.0522 0.0615366 0.141
                      CHANNELS 6 Xposition Yposition Zposition Zrotation Xrotation Yrotation
                      JOINT l_hand
                      {
                        OFFSET 24.9344 0.0510561 0.116988
                        CHANNELS 6 Xposition Yposition Zposition Zrotation Xrotation Yrotation
                        End Site
                        {
                          OFFSET 0.1 0 0
                        }
                      }
                    }
                  }
                }
                JOINT r_shoulder
                {
                  OFFSET -1.26863 -7.82715 7.75138
                  CHANNELS 6 Xposition Yposition Zposition Zrotation Xrotation Yrotation
                  JOINT r_up_arm
                  {
                    OFFSET -13.3291 3.34342 -3.36319
                    CHANNELS 6 Xposition Yposition Zposition Zrotation Xrotation Yrotation
                    JOINT r_low_arm
                    {
                      OFFSET -30.0522 0.0615366 0.141
                      CHANNELS 6 Xposition Yposition Zposition Zrotation Xrotation Yrotation
                      JOINT r_hand
                      {
                        OFFSET -24.9344 0.0510559 0.116988
                        CHANNELS 6 Xposition Yposition Zposition Zrotation Xrotation Yrotation
                        End Site
                        {
                          OFFSET -0.1 0 0
                        }
                      }
                    }
                  }
                }
              }
            }
          }
        }
      }
    }
  }
  JOINT l_up_leg
  {
    OFFSET 9.50369 -4.32711 2.09145
    CHANNELS 6 Xposition Yposition Zposition Zrotation Xrotation Yrotation
    JOINT l_low_leg
    {
      OFFSET -0.876987 -39.8926 -0.674123
      CHANNELS 6 Xposition Yposition Zposition Zrotation Xrotation Yrotation
      JOINT l_foot
      {
        OFFSET -2.39345 -41.5694 -6.22357
        CHANNELS 6 Xposition Yposition Zposition Zrotation Xrotation Yrotation
        JOINT l_toes
        {
          OFFSET 0.801613 -10.1701 12.8571
          CHANNELS 6 Xposition Yposition Zposition Zrotation Xrotation Yrotation
          End Site
          {
            OFFSET 0 0 0.1
          }
        }
      }
    }
  }
  JOINT r_up_leg
  {
    OFFSET -9.50369 -4.32711 2.09145
    CHANNELS 6 Xposition Yposition Zposition Zrotation Xrotation Yrotation
    JOINT r_low_leg
    {
      OFFSET 0.876987 -39.8926 -0.674123
      CHANNELS 6 Xposition Yposition Zposition Zrotation Xrotation Yrotation
      JOINT r_foot
      {
        OFFSET 2.39345 -41.5694 -6.22357
        CHANNELS 6 Xposition Yposition Zposition Zrotation Xrotation Yrotation
        JOINT r_toes
        {
          OFFSET -0.801613 -10.1701 12.8571
          CHANNELS 6 Xposition Yposition Zposition Zrotation Xrotation Yrotation
          End Site
          {
            OFFSET 0 0 0.1
          }
        }
      }
    }
  }
}
MOTION
Frames: 4
Frame Time: 0.016667
1025.07 91.1106 1829.11 7.59466 -30.2817 162.817 0 5.22546 -1.18466 1.68899 -4.41037 2.4636 0 5.77894 1.10239 1.51103 -3.23402 2.54642 -1.0557e-17 6.16289 0.118334 1.15936 -1.30297 2.50766 -1.13649e-17 6.69386 -0.456341 0.732814 1.8926 2.47832 -2.02997e-17 7.82529 -1.54945 0.651991 3.96009 2.26699 -2.60628e-17 9.77186 -0.940923 0.979364 5.26726 2.09593 -2.98794e-17 10.8563 1.62248 0.373245 0.347959 -0.312868 -1.32927e-17 4.92478 0.736013 0.729913 -11.3721 3.31641 -1.86396e-17 4.96043 0.433981 -1.95414 -5.60341 1.47562 -2.06766e-17 4.97002 0.787173 -0.54291 -1.39025 8.95721 1.26863 -7.82717 7.75148 2.59994 2.81613 3.38066 13.3291 3.34342 -3.36319 -90.5283 24.4406 26.7549 30.0522 0.0615366 0.141 11.7259 -14.6156 -103.222 24.9344 0.0510561 0.116988 -2.27063 -29.9234 -2.59944 -1.26863 -7.82715 7.75138 -5.96567 -2.74197 -4.05839 -13.3291 3.34342 -3.36319 70.9981 23.1914 12.2014 -30.0522 0.0615366 0.141 -10.2325 -18.1129 121.948 -24.9344 0.0510559 0.116988 12.4687 -24.9522 11.4405 9.50369 -4.32711 2.09145 -3.11272 -55.8228 -18.3215 -0.876987 -39.8926 -0.674123 -9.68176 32.6474 2.25284 -2.39345 -41.5694 -6.22357 18.6722 -12.3529 16.1566 0.801613 -10.1701 12.8571 -2.46321e-15 -7.79306e-16 -8.34581e-17 -9.50369 -4.32711 2.09145 3.92407 -2.50566 14.2652 0.876987 -39.8926 -0.674123 5.66328 20.452 -0.661062 2.39345 -41.5694 -6.22357 11.4696 12.2728 -15.9795 -0.801613 -10.1701 12.8571 -2.98554e-15 -2.82823e-16 -1.24801e-14 
1026.98 91.0287 1824.02 10.7279 -27.4274 168.227 0 5.22546 -1.18466 1.69127 -3.29348 2.44883 0 5.77894 1.10239 1.47606 -2.26848 2.54324 -1.0557e-17 6.16289 0.118334 1.11285 -0.434136 2.51478 -1.13649e-17 6.69386 -0.456341 0.667681 2.49674 2.48194 -2.02997e-17 7.82529 -1.54945 0.615504 4.2674 2.29387 -2.60628e-17 9.77186 -0.940923 0.954369 5.52212 2.13009 -2.98794e-17 10.8563 1.62248 0.324943 0.332941 -0.271455 -1.32927e-17 4.92478 0.736013 0.384812 -9.91462 2.55635 -1.86396e-17 4.96043 0.433981 -1.94475 -7.43004 1.1781 -2.06766e-17 4.97002 0.787173 0.125578 -3.75616 5.32358 1.26863 -7.82717 7.75148 2.2455 2.12515 2.65559 13.3291 3.34342 -3.36319 -87.7352 23.335 22.556 30.0522 0.0615366 0.141 11.7185 -14.6467 -103.378 24.9344 0.0510561 0.116988 -6.02888 -29.0026 -2.14689 -1.26863 -7.82715 7.75138 -6.12393 -2.70045 -3.42461 -13.3291 3.34342 -3.36319 70.928 22.1327 10.3592 -30.0522 0.0615366 0.141 -10.4916 -17.6932 119.521 -24.9344 0.0510559 0.116988 10.9993 -24.5196 11.6067 9.50369 -4.32711 2.09145 -4.65015 -50.6631 -19.2953 -0.876987 -39.8926 -0.674123 -6.75835 24.0254 1.01308 -2.39345 -41.5694 -6.22357 17.3712 -8.10115 16.2117 0.801613 -10.1701 12.8571 -1.0564e-15 -7.18526e-16 -1.46216e-16 -9.50369 -4.32711 2.09145 5.85276 0.558583 12.9342 0.876987 -39.8926 -0.674123 7.02706 24.8749 -1.10939 2.39345 -41.5694 -6.22357 11.7811 17.3441 -15.879 -0.801613 -10.1701 12.8571 -3.29137e-15 -2.6961e-16 -1.24673e-14 
1029.11 90.3421 1819.1 12.3617 -25.3076 170.466 0 5.22546 -1.18466 1.5883 -1.86362 2.3771 0 5.77894 1.10239 1.39327 -1.10466 2.43919 -1.0557e-17 6.16289 0.118334 1.06116 0.401466 2.40668 -1.13649e-17 6.69386 -0.456341 0.646912 2.7179 2.37042 -2.02997e-17 7.82529 -1.54945 0.624524 4.02937 2.19137 -2.60628e-17 9.77186 -0.940923 0.945977 5.12651 2.01173 -2.98794e-17 10.8563 1.62248 0.257447 0.394264 -0.222963 -1.32927e-17 4.92478 0.736013 0.27757 -9.24561 2.75103 -1.86396e-17 4.96043 0.433981 -2.24876 -8.82226 1.26811 -2.06766e-17 4.97002 0.787173 0.698884 -5.33135 3.69057 1.26863 -7.82717 7.75148 2.4675 2.00127 2.1695 13.3291 3.34342 -3.36319 -87.4089 23.8198 19.5662 30.0522 0.0615366 0.141 11.6938 -14.7477 -103.884 24.9344 0.0510561 0.116988 -5.35617 -28.1451 -0.87856 -1.26863 -7.82715 7.75138 -5.43154 -2.29532 -2.42629 -13.3291 3.34342 -3.36319 70.7185 22.5533 8.4025 -30.0522 0.0615366 0.141 -10.6824 -17.3549 117.612 -24.9344 0.0510559 0.116988 10.6366 -23.8767 10.6537 9.50369 -4.32711 2.09145 -4.5994 -47.0766 -19.7462 -0.876987 -39.8926 -0.674123 -5.25217 19.0668 0.546316 -2.39345 -41.5694 -6.22357 17.4768 -5.40057 16.1564 0.801613 -10.1701 12.8571 2.22609e-15 -5.76707e-16 -2.86067e-16 -9.50369 -4.32711 2.09145 7.58622 1.23923 13.5434 0.876987 -39.8926 -0.674123 9.37927 31.8199 -2.1061 2.39345 -41.5694 -6.22357 11.364 22.0385 -15.9605 -0.801613 -10.1701 12.8571 -3.77047e-15 -2.4891e-16 -1.24463e-14 
1031.38 89.0581 1814.25 13.3302 -23.1407 170.668 0 5.22546 -1.18466 1.30745 0.528258 2.23302 0 5.77894 1.10239 1.20691 0.707365 2.24331 -1.0557e-17 6.16289 0.118334 0.968205 1.38713 2.23119 -1.13649e-17 6.69386 -0.456341 0.673217 2.17381 2.20052 -2.02997e-17 7.82529 -1.54945 0.725545 2.62195 2.02354 -2.60628e-17 9.77186 -0.940923 1.0535 3.2994 1.77467 -2.98794e-17 10.8563 1.62248 0.191665 0.597302 -0.153461 -1.32927e-17 4.92478 0.736013 0.581132 -8.92537 3.60145 -1.86396e-17 4.96043 0.433981 -1.84072 -9.3491 1.66689 -2.06766e-17 4.97002 0.787173 0.342429 -5.62986 3.63499 1.26863 -7.82717 7.75148 2.83549 2.82011 1.41562 13.3291 3.34342 -3.36319 -87.6541 22.9667 17.5 30.0522 0.0615366 0.141 11.7345 -14.5795 -103.041 24.9344 0.0510561 0.116988 -4.61564 -28.2095 -0.937917 -1.26863 -7.82715 7.75138 -5.09917 -1.1075 -1.3146 -13.3291 3.34342 -3.36319 71.4117 23.7477 6.48676 -30.0522 0.0615366 0.141 -10.9589 -16.8083 114.603 -24.9344 0.0510559 0.116988 11.3688 -23.3214 9.30125 9.50369 -4.32711 2.09145 -3.6239 -45.0106 -19.1204 -0.876987 -39.8926 -0.674123 -5.31255 19.2716 0.562558 -2.39345 -41.5694 -6.22357 17.4117 -4.20121 16.2358 0.801613 -10.1701 12.8571 2.74588e-15 -5.54249e-16 -3.04539e-16 -9.50369 -4.32711 2.09145 8.33922 0.359565 14.3183 0.876987 -39.8926 -0.674123 13.3445 41.5038 -4.31055 2.39345 -41.5694 -6.22357 11.2907 24.2068 -16.0316 -0.801613 -10.1701 12.8571 -2.07825e-15 -3.22022e-16 -1.25148e-14 
